<?xml version="1.0" standalone="no"?><!DOCTYPE svg PUBLIC "-//W3C//DTD SVG 1.1//EN" "http://www.w3.org/Graphics/SVG/1.1/DTD/svg11.dtd"><svg t="1558503452138" class="icon" style="" viewBox="0 0 1024 1024" version="1.1" xmlns="http://www.w3.org/2000/svg" p-id="1534" xmlns:xlink="http://www.w3.org/1999/xlink" width="16" height="16"><defs><style type="text/css"></style></defs><path d="M949.24288 953.7H22.34288C10.04288 953.7 0.04288 943.8 0.04288 931.4c0-12.3 10-22.3 22.3-22.3h926.9c16.7 0 30.3-15.8 30.3-35.3v-91.1c0-19.5-13.6-35.3-30.3-35.3H512.04288c-12.3 0-22.3-10-22.3-22.3s10-22.3 22.3-22.3h437.2c41.3 0 74.8 35.8 74.8 79.8v91.1c0 44.2-33.6 80-74.8 80z" fill="#ffffff" p-id="1535"></path><path d="M195.34288 837.2H193.04288l-117.7-3.8C36.54288 832.2 5.14288 800.8 3.94288 762L0.04288 644.2c-0.7-20.3 7.2-40.2 21.6-54.6L519.44288 91.9c28.7-28.8 75.5-28.8 104.4 0l121.5 121.5c28.8 28.8 28.8 75.6 0 104.4L247.54288 815.6c-13.8 13.8-32.7 21.6-52.2 21.6z m-0.9-44.6c8-0.5 16-2.9 21.7-8.6l497.7-497.8c11.4-11.4 11.4-30 0-41.4L592.34288 123.4c-11.4-11.4-30-11.4-41.4 0L53.14288 621.1c-5.7 5.7-8.8 13.6-8.6 21.7l3.8 117.7c0.5 15.4 13 27.8 28.3 28.3l117.8 3.8z" fill="#ffffff" p-id="1536"></path><path d="M322.94288 730.9c-5.7 0-11.4-2.2-15.7-6.5L112.84288 530c-8.7-8.7-8.7-22.8 0-31.5s22.8-8.7 31.5 0l194.4 194.4c8.7 8.7 8.7 22.8 0 31.5-4.4 4.4-10.1 6.5-15.8 6.5z" fill="#ffffff" p-id="1537"></path></svg>