<?xml version="1.0" standalone="no"?><!DOCTYPE svg PUBLIC "-//W3C//DTD SVG 1.1//EN" "http://www.w3.org/Graphics/SVG/1.1/DTD/svg11.dtd"><svg t="1558497405677" class="icon" style="" viewBox="0 0 1136 1024" version="1.1" xmlns="http://www.w3.org/2000/svg" p-id="6578" xmlns:xlink="http://www.w3.org/1999/xlink" width="17.75" height="16"><defs><style type="text/css"></style></defs><path d="M524.447095 1002.287142l-511.55949-625.239378a56.839943 56.839943 0 0 1-4.717716-65.365934l170.51983-284.199717A56.839943 56.839943 0 0 1 227.429971 0h682.07932a56.839943 56.839943 0 0 1 48.740252 27.595793l170.51983 284.199716a56.839943 56.839943 0 0 1-4.717715 65.365935l-511.559491 625.239378a56.839943 56.839943 0 0 1-88.045072-0.11368zM126.226452 335.980905L568.469631 876.528767l442.24318-540.547862L877.309464 113.679887H259.629799zM852.669348 397.879604H284.269914a56.839943 56.839943 0 0 1 0-113.679887h568.399434a56.839943 56.839943 0 0 1 0 113.679887z" fill="#9ea1a6" p-id="6579"></path></svg>