<?xml version="1.0" standalone="no"?><!DOCTYPE svg PUBLIC "-//W3C//DTD SVG 1.1//EN" "http://www.w3.org/Graphics/SVG/1.1/DTD/svg11.dtd"><svg t="1558430157922" class="icon" style="" viewBox="0 0 1024 1024" version="1.1" xmlns="http://www.w3.org/2000/svg" p-id="8141" xmlns:xlink="http://www.w3.org/1999/xlink" width="16" height="16"><defs><style type="text/css"></style></defs><path d="M777.577153 355.679721c-89.869565-18.833358-147.624873-107.319978-128.724617-197.222383C667.719951 68.587773 756.235762 10.832465 846.042078 29.727855c16.809417 3.506624 32.850125 9.578448 47.664792 17.968561 9.807115 5.463669 13.147105 17.773951 7.716276 27.448489-5.463669 9.706161-17.868824 13.113048-27.481329 7.649379-11.218036-6.362522-23.433446-10.928554-36.160924-13.626331-68.108546-14.301384-135.124845 29.476079-149.426229 97.6126-14.306249 68.080571 29.443238 135.124845 97.518944 149.431094 68.075706 14.301384 135.186877-29.476079 149.49191-97.585841 1.544715-7.549642 2.475193-15.331599 2.664937-23.01017 0.256642-11.154787 9.516417-19.959662 20.605523-19.673829 11.218036 0.261507 19.993719 9.516417 19.67018 20.667555-0.19461 10.096597-1.382946 20.316041-3.472568 30.312901C955.905362 316.819803 867.446718 374.547136 777.577153 355.679721L777.577153 355.679721 777.577153 355.679721zM212.168941 679.22329c-91.826609 0-166.525128-74.698519-166.525128-166.557968 0-91.865531 74.698519-166.56405 166.525128-166.56405 91.831474 0 166.529993 74.732576 166.529993 166.56405C378.698934 604.491931 304.000415 679.22329 212.168941 679.22329L212.168941 679.22329 212.168941 679.22329zM212.168941 386.439007c-69.586364 0-126.221449 56.635085-126.221449 126.226315 0 69.619204 56.635085 126.253073 126.221449 126.253073s126.220233-56.635085 126.220233-126.253073C338.389174 443.044901 281.755305 386.439007 212.168941 386.439007L212.168941 386.439007 212.168941 386.439007zM811.810224 999.19942c-91.798634 0-166.525128-74.698519-166.525128-166.624865 0-91.736602 74.698519-166.430256 166.525128-166.430256 91.831474 0 166.559185 74.693654 166.559185 166.430256C978.368192 924.499685 903.641698 999.19942 811.810224 999.19942L811.810224 999.19942 811.810224 999.19942zM811.810224 706.447978c-69.586364 0-126.187393 56.635085-126.187393 126.125361 0 69.681236 56.601029 126.316322 126.187393 126.316322s126.220233-56.635085 126.220233-126.316322C938.030457 763.083063 881.396588 706.447978 811.810224 706.447978L811.810224 706.447978 811.810224 706.447978zM703.140141 273.688202l-361.244343 171.220088 351.309515-166.497153L703.140141 273.688202 703.140141 273.688202zM350.638641 463.261205l-17.389597-36.741104 348.32104-184.171367 17.389597 36.736239L350.638641 463.261205 350.638641 463.261205zM335.562467 597.550445l347.840597 189.093777L335.562467 597.550445 335.562467 597.550445 335.562467 597.550445zM674.082473 804.446149 326.145788 615.357237l18.800518-35.648857 347.874653 189.02688L674.082473 804.446149 674.082473 804.446149zM674.082473 804.446149" p-id="8142" fill="#ffffff"></path><path d="M811.810224 1010.862626C713.583387 1010.862626 633.615809 930.895048 633.615809 832.573339c0-11.734968 1.159144-23.433446 3.472568-34.973804L340.3523 636.343465c-33.525178 34.844875-79.744993 54.609928-128.183359 54.609928C113.914128 690.954609 33.974526 610.987032 33.974526 512.665322c0-98.260894 79.939603-178.228472 178.194415-178.228472 54.961442 0 106.745879 25.457388 140.459585 68.655886l290.403963-153.511817c-10.186604-30.085451-12.148513-62.193626-5.592598-93.499037C654.634878 74.051441 727.984508 14.461937 811.748192 14.461937c12.243386 0 24.587725 1.288073 36.736239 3.825298 17.997753 3.791241 35.163549 10.252285 51.042488 19.251769 15.171046 8.613914 20.667555 28.027453 12.053641 43.29702-8.324432 14.786692-28.573576 20.507002-43.393108 12.082833-10.124572-5.68747-21.147998-9.863065-32.850125-12.339474-7.778308-1.610396-15.650273-2.446001-23.561159-2.446001-53.869194 0-100.986647 38.313794-112.042913 91.06155-6.271299 29.856784-0.484092 60.459167 16.263293 86.106299 16.743736 25.651997 42.361677 43.264179 72.318198 49.530613 7.778308 1.639587 15.684329 2.476409 23.59035 2.476409 53.841219 0 101.025569-38.248113 112.014938-90.995869 1.510658-6.941486 2.285448-13.98271 2.413161-20.891356 0.384354-17.132956 14.623706-31.048769 31.818694-31.048769 9.259775 0.19461 17.227828 3.696369 23.081932 9.83509 5.88208 6.138721 8.965428 14.239352 8.770818 22.758394-0.256642 10.670696-1.510658 21.599249-3.791241 32.431714-17.227828 82.024359-90.543401 141.581024-174.336277 141.581024-12.282308 0-24.620566-1.281992-36.674207-3.824082-39.953381-8.386464-75.596156-30.146266-101.248154-61.614662L382.328406 459.726606c5.335956 17.100115 8.03495 34.841226 8.03495 52.966692 0 24.620566-4.884705 48.276597-14.558025 70.555764l285.001109 154.855841c32.560643-51.845253 89.389122-83.631106 151.002568-83.631106 98.293734 0 178.194415 79.905546 178.194415 178.099543C990.004639 930.895048 910.102742 1010.862626 811.810224 1010.862626L811.810224 1010.862626zM811.810224 718.083208c-63.124104 0-114.522971 51.426842-114.522971 114.518106 0 63.223842 51.426842 114.617843 114.522971 114.617843 63.158161 0 114.557028-51.426842 114.557028-114.617843C926.395227 769.47721 874.968385 718.083208 811.810224 718.083208L811.810224 718.083208zM212.168941 398.108294c-63.158161 0-114.552162 51.394002-114.552162 114.557028 0 63.156944 51.394002 114.550946 114.552162 114.550946 63.158161 0 114.557028-51.426842 114.557028-114.550946C326.725968 449.502296 275.327101 398.108294 212.168941 398.108294L212.168941 398.108294zM212.168941 398.108294" p-id="8143" fill="#ffffff"></path></svg>