<?xml version="1.0" standalone="no"?><!DOCTYPE svg PUBLIC "-//W3C//DTD SVG 1.1//EN" "http://www.w3.org/Graphics/SVG/1.1/DTD/svg11.dtd"><svg t="1558429850587" class="icon" style="" viewBox="0 0 1024 1024" version="1.1" xmlns="http://www.w3.org/2000/svg" p-id="5349" xmlns:xlink="http://www.w3.org/1999/xlink" width="16" height="16"><defs><style type="text/css"></style></defs><path d="M376.704 183.488h273.696a27.36 27.36 0 0 0 0-54.72h-273.696a27.36 27.36 0 0 0 0 54.72zM157.76 292.96h711.584a27.36 27.36 0 1 0 0-54.752H157.76a27.36 27.36 0 0 0 0 54.752z m82.112 82.112v438.016a81.984 81.984 0 0 0 82.048 81.984h383.936a81.984 81.984 0 0 0 82.112-82.112v-219.232a27.36 27.36 0 1 0-54.752 0v219.232a27.264 27.264 0 0 1-27.36 27.424H321.984a27.2 27.2 0 0 1-27.36-27.328V375.072a27.36 27.36 0 0 0-54.752 0z m0 0" p-id="5350" fill="#ffffff"></path><path d="M404.096 484.544v218.944a27.36 27.36 0 1 0 54.752 0v-218.944a27.36 27.36 0 0 0-54.752 0z m164.192 109.472v109.472a27.36 27.36 0 1 0 54.752 0v-109.472a27.36 27.36 0 0 0-54.752 0z m0 0M828.448 436.16c-27.584 87.456-255.52 153.6-416.544-44.288 75.264 60 296.448 88.032 345.952-15.424-66.656-34.656-88.672-44.352-88.672-44.352l226.336-15.648-15.712 220.256s-34.592-65.344-51.36-100.544" p-id="5351" fill="#ffffff"></path></svg>