<?xml version="1.0" standalone="no"?><!DOCTYPE svg PUBLIC "-//W3C//DTD SVG 1.1//EN" "http://www.w3.org/Graphics/SVG/1.1/DTD/svg11.dtd"><svg t="1558429915335" class="icon" style="" viewBox="0 0 1024 1024" version="1.1" xmlns="http://www.w3.org/2000/svg" p-id="6265" xmlns:xlink="http://www.w3.org/1999/xlink" width="16" height="16"><defs><style type="text/css"></style></defs><path d="M871.646 889.344c16.973 0 30.754-13.534 30.754-30.276v-176.59c0-16.741-13.781-30.275-30.754-30.275s-30.754 13.534-30.754 30.276v146.304H173.073V682.479c0-16.742-13.781-30.276-30.754-30.276-16.981 0-30.754 13.534-30.754 30.276v176.58c0 16.717 13.781 30.276 30.754 30.276h729.327v0.009zM639.642 400.896c12.057 11.955 31.616 11.955 43.673 0 12.058-11.904 12.058-31.25 0-43.179L531.32 176.324c-6.425-6.357-14.976-9.088-23.406-8.627-8.423-0.452-16.948 2.27-23.373 8.627L332.553 357.717c-12.058 11.93-12.058 31.284 0 43.179 12.057 11.955 31.616 11.955 43.673 0l101.427-121.054v432.853c0 16.743 13.782 30.345 30.754 30.345 16.973 0 30.755-13.594 30.755-30.345v-431.7l100.48 119.901z" fill="#ffffff" p-id="6266"></path></svg>