<?xml version="1.0" standalone="no"?><!DOCTYPE svg PUBLIC "-//W3C//DTD SVG 1.1//EN" "http://www.w3.org/Graphics/SVG/1.1/DTD/svg11.dtd"><svg t="1555635116851" class="icon" style="" viewBox="0 0 1024 1024" version="1.1" xmlns="http://www.w3.org/2000/svg" p-id="2323" xmlns:xlink="http://www.w3.org/1999/xlink" width="46" height="46"><defs><style type="text/css"></style></defs><path d="M497.066692 371.626901a42.666596 42.666596 0 1 0-42.666596-42.666596 42.666596 42.666596 0 0 0 42.666596 42.666596z" fill="#00C900" p-id="2324"></path><path d="M921.599317 0.000853H102.400683A101.973163 101.973163 0 0 0 0.000853 102.400683v819.198634A101.973163 101.973163 0 0 0 102.400683 1023.999147h819.198634a101.973163 101.973163 0 0 0 102.39983-102.39983V102.400683A101.973163 101.973163 0 0 0 921.599317 0.000853zM386.560209 678.399723a480.852532 480.852532 0 0 1-106.239823-15.786641l-106.239823 52.479913 30.293283-90.453183A247.039588 247.039588 0 0 1 85.334044 419.840154c0-142.506429 136.533106-255.999573 302.932829-255.999574 149.333084 0 279.466201 90.453183 306.346156 213.332978a216.746305 216.746305 0 0 0-28.586619 0 247.466254 247.466254 0 0 0-255.999573 239.359601 213.332978 213.332978 0 0 0 9.386651 63.573227 250.02625 250.02625 0 0 1-32.853279-1.706663z m447.572587 106.239823l22.18663 76.373206-82.773195-46.079924a350.29275 350.29275 0 0 1-90.453183 15.786641c-144.213093 0-258.132903-98.13317-258.132903-220.586299S538.879955 389.973537 682.666382 389.973537c136.533106 0 255.999573 98.13317 255.999574 220.159633a231.679614 231.679614 0 0 1-104.53316 174.506376z" fill="#00C900" p-id="2325"></path><path d="M603.306514 512a32.426613 32.426613 0 0 0-31.999946 31.999947 31.999947 31.999947 0 0 0 31.999946 31.57328 31.573281 31.573281 0 0 0 31.573281-31.57328 31.999947 31.999947 0 0 0-31.573281-31.999947zM284.587046 287.573707a42.666596 42.666596 0 1 0 42.666595 42.666596 42.666596 42.666596 0 0 0-42.666595-42.666596zM767.999573 512a31.999947 31.999947 0 0 0-31.57328 31.999947 31.573281 31.573281 0 1 0 63.146561 0A31.999947 31.999947 0 0 0 767.999573 512z" fill="#00C900" p-id="2326"></path></svg>